<svg width="32" height="32" viewBox="0 0 32 32" fill="none" xmlns="http://www.w3.org/2000/svg">
  <rect width="32" height="32" rx="6" fill="#FAF8F5"/>
  <!-- Open book -->
  <path d="M16 8.5C14 7.5 11.5 7 8 7.5V21.5C11.5 21 14 21.5 16 22.5C18 21.5 20.5 21 24 21.5V7.5C20.5 7 18 7.5 16 8.5Z" fill="#D4A574" stroke="#4A3F35" stroke-width="1.2" stroke-linejoin="round"/>
  <!-- Book spine -->
  <line x1="16" y1="8.5" x2="16" y2="22.5" stroke="#4A3F35" stroke-width="1" opacity="0.6"/>
  <!-- Left page lines -->
  <line x1="10.5" y1="11" x2="14" y2="10.5" stroke="#4A3F35" stroke-width="0.7" opacity="0.3" stroke-linecap="round"/>
  <line x1="10.5" y1="13" x2="14" y2="12.5" stroke="#4A3F35" stroke-width="0.7" opacity="0.3" stroke-linecap="round"/>
  <line x1="10.5" y1="15" x2="14" y2="14.5" stroke="#4A3F35" stroke-width="0.7" opacity="0.3" stroke-linecap="round"/>
  <!-- Right page lines -->
  <line x1="18" y1="10.5" x2="21.5" y2="11" stroke="#4A3F35" stroke-width="0.7" opacity="0.3" stroke-linecap="round"/>
  <line x1="18" y1="12.5" x2="21.5" y2="13" stroke="#4A3F35" stroke-width="0.7" opacity="0.3" stroke-linecap="round"/>
  <line x1="18" y1="14.5" x2="21.5" y2="15" stroke="#4A3F35" stroke-width="0.7" opacity="0.3" stroke-linecap="round"/>
  <!-- Pencil -->
  <line x1="21" y1="6" x2="26" y2="11" stroke="#4A3F35" stroke-width="1.4" stroke-linecap="round"/>
  <line x1="21" y1="6" x2="20" y2="5.5" stroke="#E85D75" stroke-width="1.6" stroke-linecap="round"/>
  <line x1="26" y1="11" x2="26.5" y2="11.5" stroke="#4A3F35" stroke-width="1.2" stroke-linecap="butt"/>
  <!-- AI sparkle -->
  <circle cx="23.5" cy="20" r="1" fill="#D4A574" opacity="0.8"/>
  <circle cx="26" cy="19" r="0.6" fill="#D4A574" opacity="0.5"/>
  <circle cx="25" cy="22" r="0.5" fill="#D4A574" opacity="0.5"/>
</svg>
