<svg width="1024" height="1024" viewBox="0 0 1024 1024" fill="none" xmlns="http://www.w3.org/2000/svg">
  <rect width="1024" height="1024" rx="228" fill="#FAF7F2"/>
  <rect x="120" y="120" width="784" height="784" rx="56" fill="#D4A574"/>
  <rect x="168" y="144" width="712" height="736" rx="32" fill="#FFFFFF"/>
  <rect x="168" y="144" width="56" height="736" rx="0" fill="#F0E6D8"/>
  <line x1="280" y1="280" x2="744" y2="280" stroke="#5C4033" stroke-width="16" stroke-linecap="round" opacity="0.8"/>
  <line x1="280" y1="392" x2="744" y2="392" stroke="#5C4033" stroke-width="16" stroke-linecap="round" opacity="0.8"/>
  <line x1="280" y1="504" x2="744" y2="504" stroke="#5C4033" stroke-width="16" stroke-linecap="round" opacity="0.8"/>
  <rect x="280" y="592" width="352" height="112" rx="20" fill="#FFF3B0"/>
  <line x1="280" y1="728" x2="720" y2="728" stroke="#5C4033" stroke-width="16" stroke-linecap="round" opacity="0.8"/>
  <g transform="translate(680, 680) rotate(-45)">
    <rect x="0" y="-24" width="200" height="48" rx="8" fill="#FFE655"/>
    <rect x="184" y="-24" width="48" height="48" rx="0" fill="#FFE655"/>
    <polygon points="232,-24 280,0 232,24" fill="#4A3F35"/>
    <rect x="-32" y="-16" width="32" height="32" rx="6" fill="#E8E2D9"/>
  </g>
</svg>